<svg width="28" height="28" viewBox="0 0 28 28" fill="none" xmlns="http://www.w3.org/2000/svg">
<g id="arrow">
<path id="Vector" d="M21.7001 11.7843C21.3618 12.1227 20.8018 12.1227 20.4635 11.7843L14.0001 5.321L7.5368 11.7843C7.19847 12.1227 6.63847 12.1227 6.30014 11.7843C5.9618 11.446 5.9618 10.886 6.30014 10.5477L13.3818 3.466C13.7201 3.12767 14.2801 3.12767 14.6185 3.466L21.7001 10.5477C21.8751 10.7227 21.9568 10.9443 21.9568 11.166C21.9568 11.3877 21.8751 11.6093 21.7001 11.7843Z" fill="#ffffff"/>
<path id="Vector_2" d="M14.875 23.9167C14.875 24.3951 14.4783 24.7917 14 24.7917C13.5217 24.7917 13.125 24.3951 13.125 23.9167V4.28175C13.125 3.80342 13.5217 3.40675 14 3.40675C14.4783 3.40675 14.875 3.80342 14.875 4.28175V23.9167Z" fill="#ffffff"/>
</g>
</svg>
